<svg id="visual" viewBox="0 0 900 600" width="900" height="600" xmlns="http://www.w3.org/2000/svg" xmlns:xlink="http://www.w3.org/1999/xlink" version="1.1"><rect x="0" y="0" width="900" height="600" fill="#011423"></rect><path d="M0 173L13.7 181.5C27.3 190 54.7 207 82 221.3C109.3 235.7 136.7 247.3 163.8 257.8C191 268.3 218 277.7 245.2 270.2C272.3 262.7 299.7 238.3 327 230.8C354.3 223.3 381.7 232.7 409 238.3C436.3 244 463.7 246 491 247.7C518.3 249.3 545.7 250.7 573 244.2C600.3 237.7 627.7 223.3 654.8 222.3C682 221.3 709 233.7 736.2 249C763.3 264.3 790.7 282.7 818 283.3C845.3 284 872.7 267 886.3 258.5L900 250L900 601L886.3 601C872.7 601 845.3 601 818 601C790.7 601 763.3 601 736.2 601C709 601 682 601 654.8 601C627.7 601 600.3 601 573 601C545.7 601 518.3 601 491 601C463.7 601 436.3 601 409 601C381.7 601 354.3 601 327 601C299.7 601 272.3 601 245.2 601C218 601 191 601 163.8 601C136.7 601 109.3 601 82 601C54.7 601 27.3 601 13.7 601L0 601Z" fill="#ce9339"></path><path d="M0 328L13.7 318C27.3 308 54.7 288 82 276C109.3 264 136.7 260 163.8 265.5C191 271 218 286 245.2 300.8C272.3 315.7 299.7 330.3 327 335C354.3 339.7 381.7 334.3 409 326.5C436.3 318.7 463.7 308.3 491 305.7C518.3 303 545.7 308 573 315.2C600.3 322.3 627.7 331.7 654.8 333.5C682 335.3 709 329.7 736.2 322.7C763.3 315.7 790.7 307.3 818 290.5C845.3 273.7 872.7 248.3 886.3 235.7L900 223L900 601L886.3 601C872.7 601 845.3 601 818 601C790.7 601 763.3 601 736.2 601C709 601 682 601 654.8 601C627.7 601 600.3 601 573 601C545.7 601 518.3 601 491 601C463.7 601 436.3 601 409 601C381.7 601 354.3 601 327 601C299.7 601 272.3 601 245.2 601C218 601 191 601 163.8 601C136.7 601 109.3 601 82 601C54.7 601 27.3 601 13.7 601L0 601Z" fill="#cc7e34"></path><path d="M0 378L13.7 371C27.3 364 54.7 350 82 342C109.3 334 136.7 332 163.8 327.5C191 323 218 316 245.2 307.3C272.3 298.7 299.7 288.3 327 290.2C354.3 292 381.7 306 409 324.7C436.3 343.3 463.7 366.7 491 369.3C518.3 372 545.7 354 573 352C600.3 350 627.7 364 654.8 366.8C682 369.7 709 361.3 736.2 351C763.3 340.7 790.7 328.3 818 330.8C845.3 333.3 872.7 350.7 886.3 359.3L900 368L900 601L886.3 601C872.7 601 845.3 601 818 601C790.7 601 763.3 601 736.2 601C709 601 682 601 654.8 601C627.7 601 600.3 601 573 601C545.7 601 518.3 601 491 601C463.7 601 436.3 601 409 601C381.7 601 354.3 601 327 601C299.7 601 272.3 601 245.2 601C218 601 191 601 163.8 601C136.7 601 109.3 601 82 601C54.7 601 27.3 601 13.7 601L0 601Z" fill="#c86934"></path><path d="M0 350L13.7 347.3C27.3 344.7 54.7 339.3 82 353.2C109.3 367 136.7 400 163.8 415.5C191 431 218 429 245.2 416C272.3 403 299.7 379 327 371C354.3 363 381.7 371 409 382.7C436.3 394.3 463.7 409.7 491 412.8C518.3 416 545.7 407 573 409.2C600.3 411.3 627.7 424.7 654.8 420.8C682 417 709 396 736.2 389C763.3 382 790.7 389 818 397.3C845.3 405.7 872.7 415.3 886.3 420.2L900 425L900 601L886.3 601C872.7 601 845.3 601 818 601C790.7 601 763.3 601 736.2 601C709 601 682 601 654.8 601C627.7 601 600.3 601 573 601C545.7 601 518.3 601 491 601C463.7 601 436.3 601 409 601C381.7 601 354.3 601 327 601C299.7 601 272.3 601 245.2 601C218 601 191 601 163.8 601C136.7 601 109.3 601 82 601C54.7 601 27.3 601 13.7 601L0 601Z" fill="#c25336"></path><path d="M0 445L13.7 445.2C27.3 445.3 54.7 445.7 82 445C109.3 444.3 136.7 442.7 163.8 437.7C191 432.7 218 424.3 245.2 425.8C272.3 427.3 299.7 438.7 327 441C354.3 443.3 381.7 436.7 409 442.2C436.3 447.7 463.7 465.3 491 472C518.3 478.7 545.7 474.3 573 462.7C600.3 451 627.7 432 654.8 433.3C682 434.7 709 456.3 736.2 466.2C763.3 476 790.7 474 818 460.5C845.3 447 872.7 422 886.3 409.5L900 397L900 601L886.3 601C872.7 601 845.3 601 818 601C790.7 601 763.3 601 736.2 601C709 601 682 601 654.8 601C627.7 601 600.3 601 573 601C545.7 601 518.3 601 491 601C463.7 601 436.3 601 409 601C381.7 601 354.3 601 327 601C299.7 601 272.3 601 245.2 601C218 601 191 601 163.8 601C136.7 601 109.3 601 82 601C54.7 601 27.3 601 13.7 601L0 601Z" fill="#b93d3a"></path><path d="M0 486L13.7 491.7C27.3 497.3 54.7 508.7 82 502.5C109.3 496.3 136.7 472.7 163.8 460.8C191 449 218 449 245.2 457.7C272.3 466.3 299.7 483.7 327 486.3C354.3 489 381.7 477 409 475.7C436.3 474.3 463.7 483.7 491 485.7C518.3 487.7 545.7 482.3 573 480.2C600.3 478 627.7 479 654.8 476.7C682 474.3 709 468.7 736.2 469.5C763.3 470.3 790.7 477.7 818 475.5C845.3 473.3 872.7 461.7 886.3 455.8L900 450L900 601L886.3 601C872.7 601 845.3 601 818 601C790.7 601 763.3 601 736.2 601C709 601 682 601 654.8 601C627.7 601 600.3 601 573 601C545.7 601 518.3 601 491 601C463.7 601 436.3 601 409 601C381.7 601 354.3 601 327 601C299.7 601 272.3 601 245.2 601C218 601 191 601 163.8 601C136.7 601 109.3 601 82 601C54.7 601 27.3 601 13.7 601L0 601Z" fill="#ae2540"></path><path d="M0 532L13.7 534.8C27.3 537.7 54.7 543.3 82 540.5C109.3 537.7 136.7 526.3 163.8 520.3C191 514.3 218 513.7 245.2 520.7C272.3 527.7 299.7 542.3 327 549.3C354.3 556.3 381.7 555.7 409 556.8C436.3 558 463.7 561 491 554.7C518.3 548.3 545.7 532.7 573 525.5C600.3 518.3 627.7 519.7 654.8 521.3C682 523 709 525 736.2 523C763.3 521 790.7 515 818 513.3C845.3 511.7 872.7 514.3 886.3 515.7L900 517L900 601L886.3 601C872.7 601 845.3 601 818 601C790.7 601 763.3 601 736.2 601C709 601 682 601 654.8 601C627.7 601 600.3 601 573 601C545.7 601 518.3 601 491 601C463.7 601 436.3 601 409 601C381.7 601 354.3 601 327 601C299.7 601 272.3 601 245.2 601C218 601 191 601 163.8 601C136.7 601 109.3 601 82 601C54.7 601 27.3 601 13.7 601L0 601Z" fill="#9f0445"></path></svg>